<?xml version="1.0" encoding="UTF-8"?>
<svg width="512" height="512" viewBox="0 0 512 512" xmlns="http://www.w3.org/2000/svg">
  <!-- Background circle with gradient -->
  <defs>
    <linearGradient id="bgGradient" x1="0%" y1="0%" x2="100%" y2="100%">
      <stop offset="0%" style="stop-color:#007ACC;stop-opacity:1" />
      <stop offset="100%" style="stop-color:#005A9E;stop-opacity:1" />
    </linearGradient>
    <linearGradient id="windowGradient" x1="0%" y1="0%" x2="100%" y2="100%">
      <stop offset="0%" style="stop-color:#1E1E1E;stop-opacity:1" />
      <stop offset="100%" style="stop-color:#2D2D30;stop-opacity:1" />
    </linearGradient>
    <linearGradient id="accentGradient" x1="0%" y1="0%" x2="100%" y2="100%">
      <stop offset="0%" style="stop-color:#0078D4;stop-opacity:1" />
      <stop offset="100%" style="stop-color:#106EBE;stop-opacity:1" />
    </linearGradient>
  </defs>
  
  <!-- Main background -->
  <circle cx="256" cy="256" r="240" fill="url(#bgGradient)" stroke="#005A9E" stroke-width="8"/>
  
  <!-- 6 VS Code windows in 2x3 grid -->
  <!-- Top row -->
  <!-- Window 1 -->
  <rect x="80" y="120" width="110" height="80" rx="8" ry="8" fill="url(#windowGradient)" stroke="#007ACC" stroke-width="2"/>
  <rect x="85" y="125" width="100" height="12" rx="2" ry="2" fill="url(#accentGradient)"/>
  <circle cx="92" cy="131" r="2" fill="#FF5F56"/>
  <circle cx="100" cy="131" r="2" fill="#FFBD2E"/>
  <circle cx="108" cy="131" r="2" fill="#27CA3F"/>
  <rect x="85" y="140" width="100" height="55" rx="2" ry="2" fill="#0C0C0C"/>
  <text x="135" y="170" text-anchor="middle" fill="#007ACC" font-family="monospace" font-size="16" font-weight="bold">VS</text>
  
  <!-- Window 2 -->
  <rect x="200" y="120" width="110" height="80" rx="8" ry="8" fill="url(#windowGradient)" stroke="#007ACC" stroke-width="2"/>
  <rect x="205" y="125" width="100" height="12" rx="2" ry="2" fill="url(#accentGradient)"/>
  <circle cx="212" cy="131" r="2" fill="#FF5F56"/>
  <circle cx="220" cy="131" r="2" fill="#FFBD2E"/>
  <circle cx="228" cy="131" r="2" fill="#27CA3F"/>
  <rect x="205" y="140" width="100" height="55" rx="2" ry="2" fill="#0C0C0C"/>
  <text x="255" y="170" text-anchor="middle" fill="#007ACC" font-family="monospace" font-size="16" font-weight="bold">CO</text>
  
  <!-- Window 3 -->
  <rect x="320" y="120" width="110" height="80" rx="8" ry="8" fill="url(#windowGradient)" stroke="#007ACC" stroke-width="2"/>
  <rect x="325" y="125" width="100" height="12" rx="2" ry="2" fill="url(#accentGradient)"/>
  <circle cx="332" cy="131" r="2" fill="#FF5F56"/>
  <circle cx="340" cy="131" r="2" fill="#FFBD2E"/>
  <circle cx="348" cy="131" r="2" fill="#27CA3F"/>
  <rect x="325" y="140" width="100" height="55" rx="2" ry="2" fill="#0C0C0C"/>
  <text x="375" y="170" text-anchor="middle" fill="#007ACC" font-family="monospace" font-size="16" font-weight="bold">DE</text>
  
  <!-- Bottom row -->
  <!-- Window 4 -->
  <rect x="80" y="220" width="110" height="80" rx="8" ry="8" fill="url(#windowGradient)" stroke="#007ACC" stroke-width="2"/>
  <rect x="85" y="225" width="100" height="12" rx="2" ry="2" fill="url(#accentGradient)"/>
  <circle cx="92" cy="231" r="2" fill="#FF5F56"/>
  <circle cx="100" cy="231" r="2" fill="#FFBD2E"/>
  <circle cx="108" cy="231" r="2" fill="#27CA3F"/>
  <rect x="85" y="240" width="100" height="55" rx="2" ry="2" fill="#0C0C0C"/>
  <text x="135" y="270" text-anchor="middle" fill="#007ACC" font-family="monospace" font-size="16" font-weight="bold">6X</text>
  
  <!-- Window 5 -->
  <rect x="200" y="220" width="110" height="80" rx="8" ry="8" fill="url(#windowGradient)" stroke="#007ACC" stroke-width="2"/>
  <rect x="205" y="225" width="100" height="12" rx="2" ry="2" fill="url(#accentGradient)"/>
  <circle cx="212" cy="231" r="2" fill="#FF5F56"/>
  <circle cx="220" cy="231" r="2" fill="#FFBD2E"/>
  <circle cx="228" cy="231" r="2" fill="#27CA3F"/>
  <rect x="205" y="240" width="100" height="55" rx="2" ry="2" fill="#0C0C0C"/>
  <text x="255" y="270" text-anchor="middle" fill="#007ACC" font-family="monospace" font-size="18" font-weight="bold">⚡</text>
  
  <!-- Window 6 -->
  <rect x="320" y="220" width="110" height="80" rx="8" ry="8" fill="url(#windowGradient)" stroke="#007ACC" stroke-width="2"/>
  <rect x="325" y="225" width="100" height="12" rx="2" ry="2" fill="url(#accentGradient)"/>
  <circle cx="332" cy="231" r="2" fill="#FF5F56"/>
  <circle cx="340" cy="231" r="2" fill="#FFBD2E"/>
  <circle cx="348" cy="231" r="2" fill="#27CA3F"/>
  <rect x="325" y="240" width="100" height="55" rx="2" ry="2" fill="#0C0C0C"/>
  <text x="375" y="270" text-anchor="middle" fill="#007ACC" font-family="monospace" font-size="18" font-weight="bold">✨</text>
  
  <!-- Connecting lines to show they work together -->
  <path d="M 190 160 Q 256 180 322 160" stroke="#007ACC" stroke-width="2" fill="none" opacity="0.6" stroke-dasharray="5,5"/>
  <path d="M 190 260 Q 256 240 322 260" stroke="#007ACC" stroke-width="2" fill="none" opacity="0.6" stroke-dasharray="5,5"/>
  
  <!-- Central "6" number -->
  <circle cx="256" cy="320" r="30" fill="url(#accentGradient)" stroke="#005A9E" stroke-width="3"/>
  <text x="256" y="335" text-anchor="middle" fill="white" font-family="system-ui, -apple-system" font-size="36" font-weight="bold">6</text>
  
  <!-- Cute sparkles -->
  <text x="100" y="380" fill="#FFD700" font-size="20">✨</text>
  <text x="400" y="100" fill="#FFD700" font-size="16">⭐</text>
  <text x="450" y="380" fill="#FFD700" font-size="18">💫</text>
  <text x="60" y="80" fill="#FFD700" font-size="14">✨</text>
</svg>